<svg width="32" height="32" viewBox="0 0 32 32" fill="none" xmlns="http://www.w3.org/2000/svg">
<path d="M26 3.02344H6C3.23858 3.02344 1 5.26201 1 8.02343V26C1 28.7614 3.23858 31 6 31H26C28.7614 31 31 28.7614 31 26V8.02344C31 5.26201 28.7614 3.02344 26 3.02344Z" stroke="black" stroke-width="1.25"/>
<path d="M1 10.4135H31" stroke="black" stroke-width="1.25"/>
<path d="M9 2.93548C9.38095 1.47492 10.3143 -0.569864 11 2.93548" stroke="black" stroke-width="1.25"/>
<path d="M21 2.93548C21.381 1.47492 22.3143 -0.569864 23 2.93548" stroke="black" stroke-width="1.25"/>
<path d="M15 2.93548C15.381 1.47492 16.3143 -0.569864 17 2.93548" stroke="black" stroke-width="1.25"/>
<path d="M12.186 13.5807H8V17.8036H12.186V13.5807Z" stroke="black" stroke-width="1.25"/>
<path d="M24.186 13.5807H20V17.8036H24.186V13.5807Z" stroke="black" stroke-width="1.25"/>
<path d="M12.186 22.2903H8V26.5132H12.186V22.2903Z" stroke="black" stroke-width="1.25"/>
<path d="M24.186 22.2903H20V26.5132H24.186V22.2903Z" stroke="black" stroke-width="1.25"/>
</svg>
