<svg width="286" height="126" viewBox="0 0 286 126" fill="none" xmlns="http://www.w3.org/2000/svg">
<rect x="12" y="36" width="274" height="73" rx="36.5" fill="white"/>
<ellipse cx="49" cy="72.5" rx="41" ry="36.5" fill="#5FB34F"/>
<path d="M47.81 78.071C48.5363 79.6449 49.2276 80.9045 49.8841 81.8497C50.5731 82.7065 51.516 83.5563 52.7125 84.3992L52.7963 84.5808C53.7788 84.6414 54.8451 84.4063 55.9952 83.8756C57.2664 83.289 58.0603 82.2252 58.3771 80.684C58.6659 79.0823 58.2656 77.101 57.1762 74.7402L56.7573 73.8323C58.1448 73.3388 59.1716 72.9384 59.8374 72.6312L62.9735 71.0739C63.6114 70.7061 64.6265 70.201 66.0188 69.5586C67.0478 69.0837 68.4796 68.6066 70.3142 68.1271L70.9357 69.7126L72.9682 69.1051C75.9849 75.6427 77.4233 80.6691 77.2833 84.1846C77.2039 87.672 76.17 90.2049 74.1817 91.7832C72.2819 93.3941 69.062 95.2471 64.522 97.342C60.89 99.018 57.8588 100.086 55.4282 100.547C53.0861 101.04 50.7394 100.728 48.3881 99.6107C44.5421 98.5953 40.9617 96.246 37.6468 92.5627C34.3318 88.8794 31.5152 84.5256 29.1968 79.5014C26.4873 73.6297 24.9628 68.4962 24.6232 64.1007C24.5536 60.6085 25.7435 57.3795 28.1929 54.4137C30.6144 51.3874 33.7622 48.9804 37.6363 47.1927C42.2973 45.0419 46.6625 44.239 50.732 44.7841C54.862 45.3012 58.4658 46.9056 61.5433 49.5971C64.6535 52.2001 67.1303 55.4992 68.9739 59.4944C69.1415 59.8576 69.763 61.4431 70.8383 64.2509C69.8279 65.0842 66.8967 66.7672 62.0447 69.2998C57.2533 71.8045 52.9508 73.9367 49.1372 75.6965C48.2292 76.1155 47.5494 76.3925 47.0978 76.5275L47.81 78.071ZM43.033 74.8789C43.8432 74.7253 45.9735 73.8524 49.4239 72.2602C52.7532 70.7239 56.313 68.9711 60.1032 67.0019C63.8656 64.972 66.1752 63.6126 67.032 62.9236C66.3151 61.0517 65.7751 59.7223 65.4119 58.9354C62.6187 52.8821 59.0779 48.789 54.7897 46.6562C50.5341 44.4348 44.956 44.9163 38.0552 48.1007C34.4233 49.7766 31.4129 52.0835 29.024 55.0214C26.6678 57.8708 25.5151 60.8624 25.5661 63.996C25.9057 68.3915 27.5279 73.7369 30.4329 80.0323C33.3379 86.3277 36.9112 91.2868 41.1527 94.9097C45.3942 98.5325 49.9083 99.6434 54.695 98.2422L58.7321 96.4895C60.8461 95.6608 62.4781 94.9812 63.6282 94.4504C66.4733 93.1376 68.7549 91.7176 70.4732 90.1905C72.252 88.6355 73.3393 86.7754 73.7353 84.6103C74.2149 83.5813 74.1173 81.9377 73.4423 79.6794C72.7394 77.3605 71.5058 73.8916 69.7414 69.2725C68.7496 69.5099 67.5273 69.9638 66.0746 70.6342L62.5753 72.359C61.8768 72.7547 60.892 73.2459 59.6208 73.8325C58.8944 74.1677 58.4265 74.3469 58.2169 74.3702L58.5521 75.0965C59.6415 77.4573 59.9207 79.4944 59.3898 81.2079C58.9194 82.8934 57.9275 84.0853 56.4142 84.7836C51.7532 86.9344 47.5442 84.1776 43.7872 76.5132L43.033 74.8789ZM54.2509 61.0019C54.3347 61.1835 54.1647 61.3721 53.741 61.5676C53.4383 61.7073 52.819 61.9563 51.8831 62.3148C50.9472 62.6732 49.8436 63.1457 48.5724 63.7323L42.7124 66.5466C41.5622 67.0773 40.7777 67.3659 40.3586 67.4124C39.9395 67.459 39.6322 67.2704 39.4367 66.8466C37.2859 62.1856 38.7831 58.668 43.9284 56.2937C45.0785 55.763 46.2775 55.5768 47.5254 55.7352C48.8664 55.7772 50.0909 56.2034 51.199 57.0136C52.3677 57.796 53.2313 58.7925 53.79 60.0031L54.2509 61.0019ZM50.0605 57.6491C49.0501 57.528 48.0304 57.7048 47.0014 58.1797C44.8827 59.1573 43.5067 60.2328 42.8734 61.4061C42.3006 62.5515 42.1678 63.9344 42.475 65.5548L44.1583 64.6679L48.1534 62.8243L52.0997 61.1135L53.0496 60.7853L52.882 60.4221C52.2395 59.0298 51.3433 58.1218 50.1932 57.698L50.0605 57.6491Z" fill="white"/>
<path d="M134.2 65.45C134.1 63.55 133.667 61.9333 132.9 60.6C132.133 59.2667 131.15 58.1667 129.95 57.3C128.783 56.4 127.433 55.7333 125.9 55.3C124.367 54.8333 122.783 54.5333 121.15 54.4C119.55 54.2667 117.933 54.2833 116.3 54.45C114.7 54.6167 113.217 54.8833 111.85 55.25C111.95 58.0167 112 60.9167 112 63.95C112.033 66.9833 112.05 70 112.05 73C112.05 76 112.05 78.9333 112.05 81.8C112.05 84.6333 112.1 87.2667 112.2 89.7C112.767 89.7667 113.433 89.8167 114.2 89.85C114.967 89.8833 115.733 89.9 116.5 89.9C117.3 89.8667 118.05 89.8333 118.75 89.8C119.483 89.7333 120.083 89.6333 120.55 89.5C120.583 89.5 120.6 89.5 120.6 89.5C120.633 89.4667 120.667 89.45 120.7 89.45V89.4C120.633 86.9667 120.583 85.0333 120.55 83.6C120.55 82.1667 120.55 81.0333 120.55 80.2C120.55 79.3333 120.55 78.6833 120.55 78.25C120.55 77.7833 120.533 77.3167 120.5 76.85C122.1 77.1167 123.667 77.05 125.2 76.65C126.733 76.2167 128.133 75.5333 129.4 74.6C130.667 73.6667 131.717 72.5333 132.55 71.2C133.417 69.8667 133.95 68.4 134.15 66.8C134.183 66.6 134.2 66.4 134.2 66.2C134.2 65.9667 134.2 65.7333 134.2 65.5V65.45ZM125.45 63.35C125.883 63.6167 126.217 63.95 126.45 64.35C126.717 64.75 126.883 65.1833 126.95 65.65C127.05 66.1167 127.033 66.5833 126.9 67.05C126.8 67.5167 126.617 67.9333 126.35 68.3C125.95 68.7 125.467 69 124.9 69.2C124.367 69.3667 123.8 69.4833 123.2 69.55C122.633 69.6167 122.05 69.6667 121.45 69.7C120.85 69.7 120.283 69.7167 119.75 69.75H119.6C119.433 69.25 119.317 68.7 119.25 68.1C119.217 67.4667 119.183 66.8167 119.15 66.15C119.15 65.4833 119.15 64.8167 119.15 64.15C119.183 63.4833 119.183 62.85 119.15 62.25C119.183 62.2167 119.233 62.2 119.3 62.2C120.367 61.9333 121.45 61.9 122.55 62.1C123.65 62.2667 124.617 62.6833 125.45 63.35ZM143.504 66.75C143.504 66.5167 143.487 66.35 143.454 66.25C143.454 66.15 143.454 66.0667 143.454 66C143.454 65.9 143.454 65.7833 143.454 65.65C143.454 65.5167 143.454 65.3167 143.454 65.05C143.454 64.9833 143.304 64.95 143.004 64.95C142.737 64.9167 142.404 64.9167 142.004 64.95C141.637 64.9833 141.27 65.0167 140.904 65.05C140.57 65.0833 140.337 65.1 140.204 65.1C139.804 65.1333 139.47 65.1667 139.204 65.2C138.937 65.2 138.687 65.2 138.454 65.2C138.22 65.2 137.97 65.2 137.704 65.2C137.437 65.1667 137.104 65.1333 136.704 65.1C136.57 69.5 136.537 73.75 136.604 77.85C136.704 81.95 136.754 86.05 136.754 90.15C137.554 90.0833 138.237 90.0667 138.804 90.1C139.404 90.1333 139.954 90.15 140.454 90.15C140.954 90.1833 141.437 90.1833 141.904 90.15C142.37 90.1167 142.887 90.0167 143.454 89.85V89.65C143.454 88.4167 143.437 87.2667 143.404 86.2C143.404 85.1 143.404 84.0333 143.404 83C143.404 81.9333 143.387 80.8833 143.354 79.85C143.32 78.8167 143.287 77.7167 143.254 76.55C143.22 75.6167 143.354 74.9 143.654 74.4C143.954 73.9 144.37 73.5333 144.904 73.3C145.47 73.0667 146.12 72.95 146.854 72.95C147.62 72.95 148.454 73 149.354 73.1C149.387 73.1 149.604 73.1333 150.004 73.2C150.437 73.2667 150.854 73.35 151.254 73.45C151.42 73.5167 151.587 73.5833 151.754 73.65C151.954 73.6833 152.137 73.7333 152.304 73.8L152.754 73.95C152.72 73.45 152.704 72.9167 152.704 72.35C152.704 71.7833 152.704 71.1667 152.704 70.5C152.704 69.8 152.704 69.0167 152.704 68.15C152.737 67.2833 152.754 66.2833 152.754 65.15C152.754 65.1167 152.504 65.1 152.004 65.1C151.537 65.0667 150.954 65.0667 150.254 65.1C149.554 65.1333 148.804 65.2167 148.004 65.35C147.204 65.45 146.487 65.6 145.854 65.8C145.387 65.9667 144.904 66.15 144.404 66.35C143.937 66.55 143.637 66.6833 143.504 66.75ZM175.212 65.1C174.145 65.0333 173.195 64.9833 172.362 64.95C171.562 64.9167 170.878 64.8833 170.312 64.85C170.212 64.85 170.028 64.85 169.762 64.85C169.495 64.85 169.228 64.85 168.962 64.85C168.695 64.8167 168.445 64.8167 168.212 64.85C168.012 64.85 167.912 64.8667 167.912 64.9C167.912 65.3 167.862 65.7 167.762 66.1C167.695 66.4667 167.678 66.9167 167.712 67.45C167.478 66.8833 167.195 66.45 166.862 66.15C166.528 65.8167 166.145 65.5833 165.712 65.45C165.278 65.2833 164.795 65.2 164.262 65.2C163.762 65.1667 163.212 65.15 162.612 65.15C161.445 65.1833 160.345 65.5 159.312 66.1C158.278 66.6667 157.378 67.4667 156.612 68.5C155.878 69.5 155.295 70.7 154.862 72.1C154.428 73.5 154.212 75.0333 154.212 76.7C154.212 78.0333 154.345 79.4833 154.612 81.05C154.912 82.6167 155.362 84.0667 155.962 85.4C156.562 86.7333 157.312 87.85 158.212 88.75C159.145 89.65 160.262 90.1 161.562 90.1C162.728 90.1 163.912 89.8167 165.112 89.25C166.345 88.6833 167.362 88 168.162 87.2C168.162 87.5333 168.128 87.8167 168.062 88.05C167.995 88.2833 167.962 88.5833 167.962 88.95C167.962 89.2167 167.995 89.45 168.062 89.65C168.162 89.85 168.328 89.9833 168.562 90.05C168.928 90.05 169.278 90.0333 169.612 90C169.978 89.9333 170.345 89.9 170.712 89.9C171.245 89.9 171.778 89.9333 172.312 90C172.878 90.0333 173.428 90.05 173.962 90.05H174.562C174.962 89.9833 175.162 89.7333 175.162 89.3C175.195 88.8667 175.212 88.4333 175.212 88C175.445 84.4333 175.495 80.9167 175.362 77.45C175.228 73.95 175.212 70.4 175.312 66.8V66.3C175.312 66.1 175.295 65.9 175.262 65.7C175.262 65.5 175.245 65.3 175.212 65.1ZM160.662 75.05C160.828 74.2167 161.295 73.4833 162.062 72.85C162.862 72.1833 163.945 71.85 165.312 71.85C166.012 71.85 166.528 71.9 166.862 72C167.228 72.1 167.478 72.3333 167.612 72.7C167.778 73.0667 167.862 73.6 167.862 74.3C167.895 74.9667 167.912 75.8833 167.912 77.05C167.912 77.9833 167.895 78.8333 167.862 79.6C167.862 80.3333 167.762 80.9667 167.562 81.5C167.395 82 167.095 82.4 166.662 82.7C166.262 82.9667 165.645 83.1 164.812 83.1C163.412 83.1 162.312 82.5833 161.512 81.55C160.745 80.4833 160.362 79.2 160.362 77.7C160.362 77.2667 160.378 76.8333 160.412 76.4C160.445 75.9333 160.528 75.4833 160.662 75.05ZM185.741 53.7C185.308 53.6333 184.808 53.6 184.241 53.6C183.674 53.6 183.074 53.6167 182.441 53.65C181.841 53.65 181.224 53.6667 180.591 53.7C179.991 53.7 179.441 53.7 178.941 53.7C178.974 59.7667 178.924 65.7833 178.791 71.75C178.658 77.7167 178.708 83.8 178.941 90C179.441 90.0667 179.991 90.1 180.591 90.1C181.224 90.1 181.841 90.0833 182.441 90.05C183.041 90.0167 183.608 90 184.141 90C184.708 89.9667 185.174 89.9667 185.541 90C185.674 89.2667 185.758 88.4667 185.791 87.6C185.824 86.7 185.841 85.8167 185.841 84.95C185.841 84.0833 185.824 83.25 185.791 82.45C185.758 81.65 185.741 80.95 185.741 80.35C186.308 81.0833 186.808 81.85 187.241 82.65C187.708 83.45 188.141 84.2667 188.541 85.1C188.941 85.9 189.341 86.7167 189.741 87.55C190.174 88.3833 190.641 89.2 191.141 90C191.641 90.1 192.241 90.1667 192.941 90.2C193.674 90.2333 194.424 90.2333 195.191 90.2C195.958 90.1667 196.691 90.1167 197.391 90.05C198.124 90.0167 198.724 90 199.191 90C197.924 87.4333 196.524 84.9667 194.991 82.6C193.491 80.2 191.991 77.7833 190.491 75.35C191.891 73.4833 193.308 71.6333 194.741 69.8C196.174 67.9333 197.508 66.05 198.741 64.15C198.274 64.1167 197.674 64.1333 196.941 64.2C196.208 64.2333 195.458 64.2667 194.691 64.3C193.958 64.3 193.241 64.3 192.541 64.3C191.841 64.2667 191.274 64.1667 190.841 64C190.341 64.5667 189.891 65.1667 189.491 65.8C189.124 66.4333 188.758 67.0667 188.391 67.7C188.024 68.3 187.624 68.9 187.191 69.5C186.791 70.1 186.308 70.65 185.741 71.15C185.641 70.3833 185.608 69.3833 185.641 68.15C185.708 66.9167 185.741 65.75 185.741 64.65V53.7ZM219.837 72.7C219.837 70.9 219.504 69.2833 218.837 67.85C218.17 66.3833 217.054 65.3167 215.487 64.65C214.62 64.45 213.67 64.3 212.637 64.2C211.604 64.0667 210.57 64 209.537 64C208.504 64 207.52 64.05 206.587 64.15C205.687 64.25 204.92 64.3833 204.287 64.55C202.654 64.9833 201.387 65.8167 200.487 67.05C199.62 68.2833 199.154 69.6333 199.087 71.1C199.054 72.5333 199.454 73.9333 200.287 75.3C201.154 76.6333 202.52 77.6167 204.387 78.25C205.32 78.65 206.27 78.9333 207.237 79.1C208.204 79.2667 209.07 79.4667 209.837 79.7C210.604 79.9 211.22 80.2 211.687 80.6C212.154 81 212.337 81.6 212.237 82.4C212.27 83.3667 211.97 84.0333 211.337 84.4C210.704 84.7667 210.004 84.9167 209.237 84.85C208.47 84.75 207.737 84.4667 207.037 84C206.37 83.5 206.02 82.8667 205.987 82.1C204.954 82.1 203.737 82.0833 202.337 82.05C200.937 81.9833 199.687 82.0167 198.587 82.15V82.25V82.4C198.587 83.7333 198.854 84.9333 199.387 86C199.954 87.0667 200.72 87.9667 201.687 88.7C202.687 89.4333 203.87 89.9833 205.237 90.35C206.604 90.7167 208.137 90.8667 209.837 90.8C211.77 90.8333 213.554 90.5 215.187 89.8C216.82 89.1 218.02 87.9333 218.787 86.3C219.42 84.4667 219.654 82.9333 219.487 81.7C219.32 80.4333 218.87 79.2 218.137 78C217.37 77 216.17 76.2833 214.537 75.85C212.904 75.3833 211.154 75.0167 209.287 74.75C208.52 74.4833 207.937 74.0833 207.537 73.55C207.137 73.0167 206.937 72.4833 206.937 71.95C206.937 71.4167 207.12 70.9333 207.487 70.5C207.887 70.0333 208.47 69.7333 209.237 69.6C209.67 69.5667 210.104 69.6333 210.537 69.8C211.004 69.9333 211.404 70.15 211.737 70.45C212.104 70.75 212.37 71.1 212.537 71.5C212.737 71.9 212.787 72.3 212.687 72.7C213.82 72.9333 215.02 73.0333 216.287 73C217.587 72.9667 218.77 72.8667 219.837 72.7ZM242.497 65.1C241.43 65.0333 240.48 64.9833 239.647 64.95C238.847 64.9167 238.164 64.8833 237.597 64.85C237.497 64.85 237.314 64.85 237.047 64.85C236.78 64.85 236.514 64.85 236.247 64.85C235.98 64.8167 235.73 64.8167 235.497 64.85C235.297 64.85 235.197 64.8667 235.197 64.9C235.197 65.3 235.147 65.7 235.047 66.1C234.98 66.4667 234.964 66.9167 234.997 67.45C234.764 66.8833 234.48 66.45 234.147 66.15C233.814 65.8167 233.43 65.5833 232.997 65.45C232.564 65.2833 232.08 65.2 231.547 65.2C231.047 65.1667 230.497 65.15 229.897 65.15C228.73 65.1833 227.63 65.5 226.597 66.1C225.564 66.6667 224.664 67.4667 223.897 68.5C223.164 69.5 222.58 70.7 222.147 72.1C221.714 73.5 221.497 75.0333 221.497 76.7C221.497 78.0333 221.63 79.4833 221.897 81.05C222.197 82.6167 222.647 84.0667 223.247 85.4C223.847 86.7333 224.597 87.85 225.497 88.75C226.43 89.65 227.547 90.1 228.847 90.1C230.014 90.1 231.197 89.8167 232.397 89.25C233.63 88.6833 234.647 88 235.447 87.2C235.447 87.5333 235.414 87.8167 235.347 88.05C235.28 88.2833 235.247 88.5833 235.247 88.95C235.247 89.2167 235.28 89.45 235.347 89.65C235.447 89.85 235.614 89.9833 235.847 90.05C236.214 90.05 236.564 90.0333 236.897 90C237.264 89.9333 237.63 89.9 237.997 89.9C238.53 89.9 239.064 89.9333 239.597 90C240.164 90.0333 240.714 90.05 241.247 90.05H241.847C242.247 89.9833 242.447 89.7333 242.447 89.3C242.48 88.8667 242.497 88.4333 242.497 88C242.73 84.4333 242.78 80.9167 242.647 77.45C242.514 73.95 242.497 70.4 242.597 66.8V66.3C242.597 66.1 242.58 65.9 242.547 65.7C242.547 65.5 242.53 65.3 242.497 65.1ZM227.947 75.05C228.114 74.2167 228.58 73.4833 229.347 72.85C230.147 72.1833 231.23 71.85 232.597 71.85C233.297 71.85 233.814 71.9 234.147 72C234.514 72.1 234.764 72.3333 234.897 72.7C235.064 73.0667 235.147 73.6 235.147 74.3C235.18 74.9667 235.197 75.8833 235.197 77.05C235.197 77.9833 235.18 78.8333 235.147 79.6C235.147 80.3333 235.047 80.9667 234.847 81.5C234.68 82 234.38 82.4 233.947 82.7C233.547 82.9667 232.93 83.1 232.097 83.1C230.697 83.1 229.597 82.5833 228.797 81.55C228.03 80.4833 227.647 79.2 227.647 77.7C227.647 77.2667 227.664 76.8333 227.697 76.4C227.73 75.9333 227.814 75.4833 227.947 75.05Z" fill="#105C6E" fill-opacity="0.8"/>
</svg>
