<svg width="204" height="90" viewBox="0 0 204 90" fill="none" xmlns="http://www.w3.org/2000/svg">
<rect x="10.5981" y="32.0669" width="193.402" height="51.5268" rx="25.7634" fill="white"/>
<ellipse cx="36.7146" cy="57.8303" rx="28.9397" ry="25.7634" fill="#5FB34F"/>
<path d="M33.5508 60.2328C34.0592 61.3345 34.5431 62.2162 35.0027 62.8779C35.485 63.4776 36.145 64.0725 36.9826 64.6625L37.0412 64.7896C37.7289 64.832 38.4753 64.6675 39.2804 64.296C40.1703 63.8854 40.726 63.1407 40.9478 62.0618C41.1499 60.9406 40.8697 59.5538 40.1072 57.9012L39.8139 57.2656C40.7852 56.9202 41.5039 56.64 41.97 56.4249L44.1652 55.3348C44.6118 55.0774 45.3224 54.7238 46.2969 54.2741C47.0173 53.9417 48.0195 53.6077 49.3037 53.272L49.7388 54.3819L51.1615 53.9566C53.2732 58.5329 54.2801 62.0515 54.1821 64.5122C54.1265 66.9535 53.4028 68.7265 52.011 69.8313C50.6811 70.959 48.4272 72.256 45.2492 73.7225C42.7068 74.8956 40.5849 75.6435 38.8835 75.966C37.2441 76.3114 35.6014 76.0929 33.9555 75.3105C31.2633 74.5998 28.757 72.9553 26.4365 70.377C24.1161 67.7986 22.1444 64.751 20.5215 61.2341C18.6249 57.1239 17.5577 53.5304 17.32 50.4535C17.2713 48.009 18.1043 45.7487 19.8188 43.6727C21.5139 41.5542 23.7173 39.8693 26.4292 38.6179C29.6919 37.1124 32.7476 36.5504 35.5962 36.9319C38.4872 37.2939 41.0099 38.417 43.1641 40.301C45.3412 42.1232 47.075 44.4325 48.3655 47.2291C48.4828 47.4834 48.9179 48.5932 49.6706 50.5587C48.9633 51.142 46.9115 52.3201 43.5151 54.093C40.1611 55.8462 37.1494 57.3388 34.4799 58.5706C33.8443 58.8639 33.3684 59.0578 33.0522 59.1523L33.5508 60.2328ZM30.2069 57.9983C30.774 57.8907 32.2652 57.2797 34.6805 56.1652C37.011 55.0898 39.5029 53.8629 42.1561 52.4844C44.7897 51.0635 46.4064 50.1119 47.0062 49.6296C46.5044 48.3193 46.1263 47.3887 45.8722 46.8378C43.9169 42.6005 41.4384 39.7354 38.4366 38.2424C35.4577 36.6875 31.553 37.0245 26.7225 39.2535C24.1801 40.4267 22.0728 42.0415 20.4006 44.0981C18.7512 46.0926 17.9444 48.1867 17.9801 50.3803C18.2178 53.4571 19.3534 57.1989 21.3869 61.6057C23.4203 66.0125 25.9216 69.4839 28.8907 72.0198C31.8598 74.5558 35.0196 75.3334 38.3703 74.3526L41.1963 73.1257C42.676 72.5457 43.8185 72.0699 44.6236 71.6984C46.6151 70.7794 48.2122 69.7854 49.415 68.7164C50.6602 67.6279 51.4213 66.3259 51.6985 64.8103C52.0343 64.09 51.9659 62.9394 51.4934 61.3586C51.0014 59.7354 50.1378 57.3072 48.9028 54.0738C48.2085 54.24 47.3529 54.5577 46.336 55.027L43.8865 56.2344C43.3976 56.5114 42.7082 56.8552 41.8184 57.2658C41.3099 57.5004 40.9823 57.6259 40.8356 57.6422L41.0703 58.1506C41.8328 59.8032 42.0283 61.2292 41.6566 62.4286C41.3274 63.6084 40.6331 64.4428 39.5737 64.9316C36.311 66.4372 33.3647 64.5074 30.7348 59.1423L30.2069 57.9983ZM38.0594 48.2844C38.1181 48.4115 37.9991 48.5435 37.7025 48.6804C37.4906 48.7781 37.0571 48.9525 36.402 49.2034C35.7468 49.4543 34.9743 49.7851 34.0845 50.1957L29.9825 52.1657C29.1774 52.5372 28.6282 52.7392 28.3348 52.7718C28.0415 52.8043 27.8264 52.6723 27.6895 52.3757C26.1839 49.113 27.232 46.6506 30.8337 44.9886C31.6388 44.6171 32.4781 44.4868 33.3516 44.5977C34.2902 44.6271 35.1474 44.9254 35.9231 45.4926C36.7412 46.0402 37.3457 46.7378 37.7368 47.5852L38.0594 48.2844ZM35.1262 45.9374C34.4189 45.8526 33.7051 45.9764 32.9848 46.3088C31.5017 46.9932 30.5385 47.746 30.0952 48.5673C29.6942 49.3691 29.6013 50.3371 29.8163 51.4714L30.9946 50.8506L33.7912 49.5601L36.5536 48.3625L37.2185 48.1328L37.1012 47.8785C36.6515 46.904 36.0241 46.2683 35.2191 45.9717L35.1262 45.9374Z" fill="white"/>
<path d="M93.96 53.5098C93.89 52.1798 93.5867 51.0482 93.05 50.1148C92.5134 49.1815 91.825 48.4115 90.985 47.8048C90.1684 47.1748 89.2234 46.7082 88.15 46.4048C87.0767 46.0782 85.9684 45.8682 84.825 45.7748C83.705 45.6815 82.5734 45.6932 81.43 45.8098C80.31 45.9265 79.2717 46.1132 78.315 46.3698C78.385 48.3065 78.42 50.3365 78.42 52.4598C78.4434 54.5832 78.455 56.6948 78.455 58.7948C78.455 60.8948 78.455 62.9482 78.455 64.9548C78.455 66.9382 78.49 68.7815 78.56 70.4848C78.9567 70.5315 79.4234 70.5665 79.96 70.5898C80.4967 70.6132 81.0334 70.6248 81.57 70.6248C82.13 70.6015 82.655 70.5782 83.145 70.5548C83.6584 70.5082 84.0784 70.4382 84.405 70.3448C84.4284 70.3448 84.44 70.3448 84.44 70.3448C84.4634 70.3215 84.4867 70.3098 84.51 70.3098V70.2748C84.4634 68.5715 84.4284 67.2182 84.405 66.2148C84.405 65.2115 84.405 64.4182 84.405 63.8348C84.405 63.2282 84.405 62.7732 84.405 62.4698C84.405 62.1432 84.3934 61.8165 84.37 61.4898C85.49 61.6765 86.5867 61.6298 87.66 61.3498C88.7334 61.0465 89.7134 60.5682 90.6 59.9148C91.4867 59.2615 92.2217 58.4682 92.805 57.5348C93.4117 56.6015 93.785 55.5748 93.925 54.4548C93.9484 54.3148 93.96 54.1748 93.96 54.0348C93.96 53.8715 93.96 53.7082 93.96 53.5448V53.5098ZM87.835 52.0398C88.1384 52.2265 88.3717 52.4598 88.535 52.7398C88.7217 53.0198 88.8384 53.3232 88.885 53.6498C88.955 53.9765 88.9434 54.3032 88.85 54.6298C88.78 54.9565 88.6517 55.2482 88.465 55.5048C88.185 55.7848 87.8467 55.9948 87.45 56.1348C87.0767 56.2515 86.68 56.3332 86.26 56.3798C85.8634 56.4265 85.455 56.4615 85.035 56.4848C84.615 56.4848 84.2184 56.4965 83.845 56.5198H83.74C83.6234 56.1698 83.5417 55.7848 83.495 55.3648C83.4717 54.9215 83.4484 54.4665 83.425 53.9998C83.425 53.5332 83.425 53.0665 83.425 52.5998C83.4484 52.1332 83.4484 51.6898 83.425 51.2698C83.4484 51.2465 83.4834 51.2348 83.53 51.2348C84.2767 51.0482 85.035 51.0248 85.805 51.1648C86.575 51.2815 87.2517 51.5732 87.835 52.0398ZM100.472 54.4198C100.472 54.2565 100.461 54.1398 100.437 54.0698C100.437 53.9998 100.437 53.9415 100.437 53.8948C100.437 53.8248 100.437 53.7432 100.437 53.6498C100.437 53.5565 100.437 53.4165 100.437 53.2298C100.437 53.1832 100.332 53.1598 100.122 53.1598C99.9358 53.1365 99.7025 53.1365 99.4225 53.1598C99.1658 53.1832 98.9091 53.2065 98.6525 53.2298C98.4191 53.2532 98.2558 53.2648 98.1625 53.2648C97.8825 53.2882 97.6491 53.3115 97.4625 53.3348C97.2758 53.3348 97.1008 53.3348 96.9375 53.3348C96.7741 53.3348 96.5991 53.3348 96.4125 53.3348C96.2258 53.3115 95.9925 53.2882 95.7125 53.2648C95.6191 56.3448 95.5958 59.3198 95.6425 62.1898C95.7125 65.0598 95.7475 67.9298 95.7475 70.7998C96.3075 70.7532 96.7858 70.7415 97.1825 70.7648C97.6025 70.7882 97.9875 70.7998 98.3375 70.7998C98.6875 70.8232 99.0258 70.8232 99.3525 70.7998C99.6791 70.7765 100.041 70.7065 100.437 70.5898V70.4498C100.437 69.5865 100.426 68.7815 100.402 68.0348C100.402 67.2648 100.402 66.5182 100.402 65.7948C100.402 65.0482 100.391 64.3132 100.367 63.5898C100.344 62.8665 100.321 62.0965 100.297 61.2798C100.274 60.6265 100.367 60.1248 100.577 59.7748C100.787 59.4248 101.079 59.1682 101.452 59.0048C101.849 58.8415 102.304 58.7598 102.817 58.7598C103.354 58.7598 103.937 58.7948 104.567 58.8648C104.591 58.8648 104.742 58.8882 105.022 58.9348C105.326 58.9815 105.617 59.0398 105.897 59.1098C106.014 59.1565 106.131 59.2032 106.247 59.2498C106.387 59.2732 106.516 59.3082 106.632 59.3548L106.947 59.4598C106.924 59.1098 106.912 58.7365 106.912 58.3398C106.912 57.9432 106.912 57.5115 106.912 57.0448C106.912 56.5548 106.912 56.0065 106.912 55.3998C106.936 54.7932 106.947 54.0932 106.947 53.2998C106.947 53.2765 106.772 53.2648 106.422 53.2648C106.096 53.2415 105.687 53.2415 105.197 53.2648C104.707 53.2882 104.182 53.3465 103.622 53.4398C103.062 53.5098 102.561 53.6148 102.117 53.7548C101.791 53.8715 101.452 53.9998 101.102 54.1398C100.776 54.2798 100.566 54.3732 100.472 54.4198ZM122.668 53.2648C121.922 53.2182 121.257 53.1832 120.673 53.1598C120.113 53.1365 119.635 53.1132 119.238 53.0898C119.168 53.0898 119.04 53.0898 118.853 53.0898C118.667 53.0898 118.48 53.0898 118.293 53.0898C118.107 53.0665 117.932 53.0665 117.768 53.0898C117.628 53.0898 117.558 53.1015 117.558 53.1248C117.558 53.4048 117.523 53.6848 117.453 53.9648C117.407 54.2215 117.395 54.5365 117.418 54.9098C117.255 54.5132 117.057 54.2098 116.823 53.9998C116.59 53.7665 116.322 53.6032 116.018 53.5098C115.715 53.3932 115.377 53.3348 115.003 53.3348C114.653 53.3115 114.268 53.2998 113.848 53.2998C113.032 53.3232 112.262 53.5448 111.538 53.9648C110.815 54.3615 110.185 54.9215 109.648 55.6448C109.135 56.3448 108.727 57.1848 108.423 58.1648C108.12 59.1448 107.968 60.2182 107.968 61.3848C107.968 62.3182 108.062 63.3332 108.248 64.4298C108.458 65.5265 108.773 66.5415 109.193 67.4748C109.613 68.4082 110.138 69.1898 110.768 69.8198C111.422 70.4498 112.203 70.7648 113.113 70.7648C113.93 70.7648 114.758 70.5665 115.598 70.1698C116.462 69.7732 117.173 69.2948 117.733 68.7348C117.733 68.9682 117.71 69.1665 117.663 69.3298C117.617 69.4932 117.593 69.7032 117.593 69.9598C117.593 70.1465 117.617 70.3098 117.663 70.4498C117.733 70.5898 117.85 70.6832 118.013 70.7298C118.27 70.7298 118.515 70.7182 118.748 70.6948C119.005 70.6482 119.262 70.6248 119.518 70.6248C119.892 70.6248 120.265 70.6482 120.638 70.6948C121.035 70.7182 121.42 70.7298 121.793 70.7298H122.213C122.493 70.6832 122.633 70.5082 122.633 70.2048C122.657 69.9015 122.668 69.5982 122.668 69.2948C122.832 66.7982 122.867 64.3365 122.773 61.9098C122.68 59.4598 122.668 56.9748 122.738 54.4548V54.1048C122.738 53.9648 122.727 53.8248 122.703 53.6848C122.703 53.5448 122.692 53.4048 122.668 53.2648ZM112.483 60.2298C112.6 59.6465 112.927 59.1332 113.463 58.6898C114.023 58.2232 114.782 57.9898 115.738 57.9898C116.228 57.9898 116.59 58.0248 116.823 58.0948C117.08 58.1648 117.255 58.3282 117.348 58.5848C117.465 58.8415 117.523 59.2148 117.523 59.7048C117.547 60.1715 117.558 60.8132 117.558 61.6298C117.558 62.2832 117.547 62.8782 117.523 63.4148C117.523 63.9282 117.453 64.3715 117.313 64.7448C117.197 65.0948 116.987 65.3748 116.683 65.5848C116.403 65.7715 115.972 65.8648 115.388 65.8648C114.408 65.8648 113.638 65.5032 113.078 64.7798C112.542 64.0332 112.273 63.1348 112.273 62.0848C112.273 61.7815 112.285 61.4782 112.308 61.1748C112.332 60.8482 112.39 60.5332 112.483 60.2298ZM130.039 45.2848C129.735 45.2382 129.385 45.2148 128.989 45.2148C128.592 45.2148 128.172 45.2265 127.729 45.2498C127.309 45.2498 126.877 45.2615 126.434 45.2848C126.014 45.2848 125.629 45.2848 125.279 45.2848C125.302 49.5315 125.267 53.7432 125.174 57.9198C125.08 62.0965 125.115 66.3548 125.279 70.6948C125.629 70.7415 126.014 70.7648 126.434 70.7648C126.877 70.7648 127.309 70.7532 127.729 70.7298C128.149 70.7065 128.545 70.6948 128.919 70.6948C129.315 70.6715 129.642 70.6715 129.899 70.6948C129.992 70.1815 130.05 69.6215 130.074 69.0148C130.097 68.3848 130.109 67.7665 130.109 67.1598C130.109 66.5532 130.097 65.9698 130.074 65.4098C130.05 64.8498 130.039 64.3598 130.039 63.9398C130.435 64.4532 130.785 64.9898 131.089 65.5498C131.415 66.1098 131.719 66.6815 131.999 67.2648C132.279 67.8248 132.559 68.3965 132.839 68.9798C133.142 69.5632 133.469 70.1348 133.819 70.6948C134.169 70.7648 134.589 70.8115 135.079 70.8348C135.592 70.8582 136.117 70.8582 136.654 70.8348C137.19 70.8115 137.704 70.7765 138.194 70.7298C138.707 70.7065 139.127 70.6948 139.454 70.6948C138.567 68.8982 137.587 67.1715 136.514 65.5148C135.464 63.8348 134.414 62.1432 133.364 60.4398C134.344 59.1332 135.335 57.8382 136.339 56.5548C137.342 55.2482 138.275 53.9298 139.139 52.5998C138.812 52.5765 138.392 52.5882 137.879 52.6348C137.365 52.6582 136.84 52.6815 136.304 52.7048C135.79 52.7048 135.289 52.7048 134.799 52.7048C134.309 52.6815 133.912 52.6115 133.609 52.4948C133.259 52.8915 132.944 53.3115 132.664 53.7548C132.407 54.1982 132.15 54.6415 131.894 55.0848C131.637 55.5048 131.357 55.9248 131.054 56.3448C130.774 56.7648 130.435 57.1498 130.039 57.4998C129.969 56.9632 129.945 56.2632 129.969 55.3998C130.015 54.5365 130.039 53.7198 130.039 52.9498V45.2848ZM153.906 58.5848C153.906 57.3248 153.673 56.1932 153.206 55.1898C152.739 54.1632 151.958 53.4165 150.861 52.9498C150.254 52.8098 149.589 52.7048 148.866 52.6348C148.143 52.5415 147.419 52.4948 146.696 52.4948C145.973 52.4948 145.284 52.5298 144.631 52.5998C144.001 52.6698 143.464 52.7632 143.021 52.8798C141.878 53.1832 140.991 53.7665 140.361 54.6298C139.754 55.4932 139.428 56.4382 139.381 57.4648C139.358 58.4682 139.638 59.4482 140.221 60.4048C140.828 61.3382 141.784 62.0265 143.091 62.4698C143.744 62.7498 144.409 62.9482 145.086 63.0648C145.763 63.1815 146.369 63.3215 146.906 63.4848C147.443 63.6248 147.874 63.8348 148.201 64.1148C148.528 64.3948 148.656 64.8148 148.586 65.3748C148.609 66.0515 148.399 66.5182 147.956 66.7748C147.513 67.0315 147.023 67.1365 146.486 67.0898C145.949 67.0198 145.436 66.8215 144.946 66.4948C144.479 66.1448 144.234 65.7015 144.211 65.1648C143.488 65.1648 142.636 65.1532 141.656 65.1298C140.676 65.0832 139.801 65.1065 139.031 65.1998V65.2698V65.3748C139.031 66.3082 139.218 67.1482 139.591 67.8948C139.988 68.6415 140.524 69.2715 141.201 69.7848C141.901 70.2982 142.729 70.6832 143.686 70.9398C144.643 71.1965 145.716 71.3015 146.906 71.2548C148.259 71.2782 149.508 71.0448 150.651 70.5548C151.794 70.0648 152.634 69.2482 153.171 68.1048C153.614 66.8215 153.778 65.7482 153.661 64.8848C153.544 63.9982 153.229 63.1348 152.716 62.2948C152.179 61.5948 151.339 61.0932 150.196 60.7898C149.053 60.4632 147.828 60.2065 146.521 60.0198C145.984 59.8332 145.576 59.5532 145.296 59.1798C145.016 58.8065 144.876 58.4332 144.876 58.0598C144.876 57.6865 145.004 57.3482 145.261 57.0448C145.541 56.7182 145.949 56.5082 146.486 56.4148C146.789 56.3915 147.093 56.4382 147.396 56.5548C147.723 56.6482 148.003 56.7998 148.236 57.0098C148.493 57.2198 148.679 57.4648 148.796 57.7448C148.936 58.0248 148.971 58.3048 148.901 58.5848C149.694 58.7482 150.534 58.8182 151.421 58.7948C152.331 58.7715 153.159 58.7015 153.906 58.5848ZM169.768 53.2648C169.021 53.2182 168.356 53.1832 167.773 53.1598C167.213 53.1365 166.734 53.1132 166.338 53.0898C166.268 53.0898 166.139 53.0898 165.953 53.0898C165.766 53.0898 165.579 53.0898 165.393 53.0898C165.206 53.0665 165.031 53.0665 164.868 53.0898C164.728 53.0898 164.658 53.1015 164.658 53.1248C164.658 53.4048 164.623 53.6848 164.553 53.9648C164.506 54.2215 164.494 54.5365 164.518 54.9098C164.354 54.5132 164.156 54.2098 163.923 53.9998C163.689 53.7665 163.421 53.6032 163.118 53.5098C162.814 53.3932 162.476 53.3348 162.103 53.3348C161.753 53.3115 161.368 53.2998 160.948 53.2998C160.131 53.3232 159.361 53.5448 158.638 53.9648C157.914 54.3615 157.284 54.9215 156.748 55.6448C156.234 56.3448 155.826 57.1848 155.523 58.1648C155.219 59.1448 155.068 60.2182 155.068 61.3848C155.068 62.3182 155.161 63.3332 155.348 64.4298C155.558 65.5265 155.873 66.5415 156.293 67.4748C156.713 68.4082 157.238 69.1898 157.868 69.8198C158.521 70.4498 159.303 70.7648 160.213 70.7648C161.029 70.7648 161.858 70.5665 162.698 70.1698C163.561 69.7732 164.273 69.2948 164.833 68.7348C164.833 68.9682 164.809 69.1665 164.763 69.3298C164.716 69.4932 164.693 69.7032 164.693 69.9598C164.693 70.1465 164.716 70.3098 164.763 70.4498C164.833 70.5898 164.949 70.6832 165.113 70.7298C165.369 70.7298 165.614 70.7182 165.848 70.6948C166.104 70.6482 166.361 70.6248 166.618 70.6248C166.991 70.6248 167.364 70.6482 167.738 70.6948C168.134 70.7182 168.519 70.7298 168.893 70.7298H169.313C169.593 70.6832 169.733 70.5082 169.733 70.2048C169.756 69.9015 169.768 69.5982 169.768 69.2948C169.931 66.7982 169.966 64.3365 169.873 61.9098C169.779 59.4598 169.768 56.9748 169.838 54.4548V54.1048C169.838 53.9648 169.826 53.8248 169.803 53.6848C169.803 53.5448 169.791 53.4048 169.768 53.2648ZM159.583 60.2298C159.699 59.6465 160.026 59.1332 160.563 58.6898C161.123 58.2232 161.881 57.9898 162.838 57.9898C163.328 57.9898 163.689 58.0248 163.923 58.0948C164.179 58.1648 164.354 58.3282 164.448 58.5848C164.564 58.8415 164.623 59.2148 164.623 59.7048C164.646 60.1715 164.658 60.8132 164.658 61.6298C164.658 62.2832 164.646 62.8782 164.623 63.4148C164.623 63.9282 164.553 64.3715 164.413 64.7448C164.296 65.0948 164.086 65.3748 163.783 65.5848C163.503 65.7715 163.071 65.8648 162.488 65.8648C161.508 65.8648 160.738 65.5032 160.178 64.7798C159.641 64.0332 159.373 63.1348 159.373 62.0848C159.373 61.7815 159.384 61.4782 159.408 61.1748C159.431 60.8482 159.489 60.5332 159.583 60.2298Z" fill="#105C6E" fill-opacity="0.8"/>
</svg>
