<svg width="200" height="200" viewBox="0 0 200 200" fill="none" xmlns="http://www.w3.org/2000/svg">
<g opacity="0.5">
<path opacity="0.5" d="M100 200C155.228 200 200 155.228 200 100C200 44.7715 155.228 0 100 0C44.7715 0 0 44.7715 0 100C0 155.228 44.7715 200 100 200Z" fill="url(#paint0_linear_997_29)"/>
</g>
<path d="M100.195 197.252C154.259 197.252 198.086 153.425 198.086 99.3613C198.086 45.2976 154.259 1.47021 100.195 1.47021C46.1311 1.47021 2.30371 45.2976 2.30371 99.3613C2.30371 153.425 46.1311 197.252 100.195 197.252Z" fill="#F5F5F5"/>
<path d="M100.287 197.639C119.415 197.67 138.129 192.07 154.095 181.536C150.487 161.822 136.76 160.699 136.76 160.699H61.0576C61.0576 160.699 48.1035 161.762 44.0576 179.897C60.5187 191.476 80.1613 197.674 100.287 197.639V197.639Z" fill="#105C6E"/>
<path d="M99.2463 144.547C125.341 144.547 146.496 123.393 146.496 97.2981C146.496 71.2031 125.341 50.0488 99.2463 50.0488C73.1513 50.0488 51.9971 71.2031 51.9971 97.2981C51.9971 123.393 73.1513 144.547 99.2463 144.547Z" fill="#333333"/>
<path opacity="0.1" d="M83.9971 136.653H114.272V160.874C114.272 164.888 112.678 168.737 109.84 171.576C107.003 174.414 103.154 176.01 99.1403 176.012V176.012C95.1256 176.012 91.2753 174.417 88.4365 171.578C85.5976 168.739 84.0028 164.889 84.0028 160.874V136.653H83.9971Z" fill="black"/>
<path d="M84.9571 135.53H113.324C113.578 135.53 113.823 135.631 114.003 135.811C114.183 135.991 114.284 136.236 114.284 136.49V159.751C114.284 161.74 113.893 163.709 113.132 165.546C112.371 167.383 111.255 169.053 109.849 170.459C108.443 171.865 106.773 172.98 104.936 173.74C103.098 174.501 101.129 174.892 99.1405 174.891V174.891C95.1257 174.891 91.2755 173.296 88.4366 170.458C85.5978 167.619 84.0029 163.768 84.0029 159.754V136.49C84.0029 136.237 84.1033 135.993 84.282 135.813C84.4608 135.634 84.7035 135.532 84.9571 135.53V135.53Z" fill="#FDB797"/>
<path opacity="0.1" d="M84.0518 148.086C93.8091 151.732 104.55 151.761 114.327 148.169V144.444H84.0518V148.086Z" fill="black"/>
<path d="M99.246 150.112C123.213 150.112 142.641 130.683 142.641 106.716C142.641 82.7496 123.213 63.3208 99.246 63.3208C75.2794 63.3208 55.8506 82.7496 55.8506 106.716C55.8506 130.683 75.2794 150.112 99.246 150.112Z" fill="#FDB797"/>
<path opacity="0.1" d="M68.335 67.2437C68.335 67.2437 86.6244 104.367 138.215 82.8082L126.203 63.9743L104.911 56.3325L68.335 67.2437Z" fill="black"/>
<path d="M68.335 66.6991C68.335 66.6991 86.6244 103.822 138.215 82.2579L126.203 63.4241L104.911 55.7822L68.335 66.6991Z" fill="#333333"/>
<path d="M68.1745 64.1833C69.4077 60.3659 71.539 56.9002 74.3894 54.0773C82.9252 45.6389 96.9195 43.8596 104.097 34.2378C105.816 36.9083 104.487 41.0143 101.518 42.1604C108.395 42.1146 116.364 41.5129 120.252 35.8567C121.213 38.0937 121.519 40.5576 121.135 42.9618C120.751 45.366 119.693 47.6119 118.083 49.4384C124.177 49.7249 130.69 53.851 131.074 59.9398C131.338 63.9971 128.782 67.8366 125.461 70.1633C122.14 72.4899 118.094 73.5587 114.126 74.4326C102.538 76.9914 60.6129 87.6991 68.1745 64.1833Z" fill="#333333"/>
<path d="M55.8341 114.246C58.0638 114.246 59.8714 110.857 59.8714 106.676C59.8714 102.495 58.0638 99.106 55.8341 99.106C53.6044 99.106 51.7969 102.495 51.7969 106.676C51.7969 110.857 53.6044 114.246 55.8341 114.246Z" fill="#FDB797"/>
<path d="M142.636 114.246C144.866 114.246 146.673 110.857 146.673 106.676C146.673 102.495 144.866 99.106 142.636 99.106C140.406 99.106 138.599 102.495 138.599 106.676C138.599 110.857 140.406 114.246 142.636 114.246Z" fill="#FDB797"/>
<defs>
<linearGradient id="paint0_linear_997_29" x1="100" y1="200" x2="100" y2="0" gradientUnits="userSpaceOnUse">
<stop stop-color="#808080" stop-opacity="0.25"/>
<stop offset="0.54" stop-color="#808080" stop-opacity="0.12"/>
<stop offset="1" stop-color="#808080" stop-opacity="0.1"/>
</linearGradient>
</defs>
</svg>
