<svg width="100" height="100" viewBox="0 0 100 100" fill="none" xmlns="http://www.w3.org/2000/svg">
<g opacity="0.5">
<path opacity="0.5" d="M50 100C77.6142 100 100 77.6142 100 50C100 22.3858 77.6142 0 50 0C22.3858 0 0 22.3858 0 50C0 77.6142 22.3858 100 50 100Z" fill="url(#paint0_linear_997_29)"/>
</g>
<path d="M50.0979 98.6265C77.1298 98.6265 99.0435 76.7128 99.0435 49.6809C99.0435 22.649 77.1298 0.735352 50.0979 0.735352C23.066 0.735352 1.15234 22.649 1.15234 49.6809C1.15234 76.7128 23.066 98.6265 50.0979 98.6265Z" fill="#F5F5F5"/>
<path d="M50.1439 98.8195C59.7079 98.8351 69.0648 96.0348 77.0479 90.7679C75.2442 80.9112 68.3803 80.3496 68.3803 80.3496H30.5293C30.5293 80.3496 24.0522 80.8811 22.0293 89.9485C30.2598 95.7379 40.0811 98.8369 50.1439 98.8195V98.8195Z" fill="#105C6E"/>
<path d="M49.6227 72.2737C62.6702 72.2737 73.2473 61.6966 73.2473 48.6491C73.2473 35.6015 62.6702 25.0244 49.6227 25.0244C36.5752 25.0244 25.998 35.6015 25.998 48.6491C25.998 61.6966 36.5752 72.2737 49.6227 72.2737Z" fill="#333333"/>
<path opacity="0.1" d="M41.998 68.3267H57.1356V80.437C57.1356 82.4439 56.3386 84.3686 54.9198 85.7879C53.501 87.2072 51.5765 88.005 49.5697 88.0058V88.0058C47.5623 88.0058 45.6372 87.2083 44.2178 85.7889C42.7983 84.3695 42.0009 82.4443 42.0009 80.437V68.3267H41.998Z" fill="black"/>
<path d="M42.479 67.7651H56.6624C56.7897 67.7651 56.9118 67.8157 57.0018 67.9057C57.0918 67.9957 57.1424 68.1178 57.1424 68.2451V79.8755C57.1426 80.8698 56.9468 81.8544 56.5664 82.773C56.1859 83.6916 55.6282 84.5263 54.925 85.2293C54.2219 85.9323 53.3871 86.4899 52.4684 86.8702C51.5497 87.2505 50.565 87.446 49.5707 87.4456V87.4456C47.5634 87.4456 45.6382 86.6482 44.2188 85.2288C42.7994 83.8094 42.002 81.8842 42.002 79.8769V68.2451C42.002 68.1183 42.0521 67.9966 42.1415 67.9067C42.2309 67.8168 42.3522 67.7659 42.479 67.7651V67.7651Z" fill="#FDB797"/>
<path opacity="0.1" d="M42.0254 74.0431C46.9041 75.8658 52.2743 75.8805 57.1629 74.0846V72.2222H42.0254V74.0431Z" fill="black"/>
<path d="M49.6235 75.0556C61.6068 75.0556 71.3212 65.3412 71.3212 53.3579C71.3212 41.3746 61.6068 31.6602 49.6235 31.6602C37.6402 31.6602 27.9258 41.3746 27.9258 53.3579C27.9258 65.3412 37.6402 75.0556 49.6235 75.0556Z" fill="#FDB797"/>
<path opacity="0.1" d="M34.168 33.6221C34.168 33.6221 43.3127 52.1837 69.1078 41.4043L63.1021 31.9874L52.4559 28.1665L34.168 33.6221Z" fill="black"/>
<path d="M34.168 33.3496C34.168 33.3496 43.3127 51.9112 69.1078 41.1289L63.1021 31.712L52.4559 27.8911L34.168 33.3496Z" fill="#333333"/>
<path d="M34.0877 32.0919C34.7043 30.1832 35.77 28.4503 37.1952 27.0389C41.4631 22.8197 48.4602 21.93 52.049 17.1191C52.9086 18.4544 52.2439 20.5074 50.7596 21.0805C54.198 21.0575 58.1823 20.7567 60.1264 17.9286C60.6069 19.0471 60.76 20.279 60.568 21.4811C60.3761 22.6833 59.8468 23.8062 59.0419 24.7194C62.0892 24.8627 65.3456 26.9257 65.5376 29.9701C65.6694 31.9988 64.3914 33.9186 62.731 35.0819C61.0705 36.2452 59.0476 36.7796 57.0634 37.2166C51.2697 38.4959 30.3069 43.8498 34.0877 32.0919Z" fill="#333333"/>
<path d="M27.9171 57.1229C29.0319 57.1229 29.9357 55.4283 29.9357 53.3378C29.9357 51.2474 29.0319 49.5527 27.9171 49.5527C26.8022 49.5527 25.8984 51.2474 25.8984 53.3378C25.8984 55.4283 26.8022 57.1229 27.9171 57.1229Z" fill="#FDB797"/>
<path d="M71.3175 57.1229C72.4323 57.1229 73.3361 55.4283 73.3361 53.3378C73.3361 51.2474 72.4323 49.5527 71.3175 49.5527C70.2026 49.5527 69.2988 51.2474 69.2988 53.3378C69.2988 55.4283 70.2026 57.1229 71.3175 57.1229Z" fill="#FDB797"/>
<defs>
<linearGradient id="paint0_linear_997_29" x1="50" y1="100" x2="50" y2="0" gradientUnits="userSpaceOnUse">
<stop stop-color="#808080" stop-opacity="0.25"/>
<stop offset="0.54" stop-color="#808080" stop-opacity="0.12"/>
<stop offset="1" stop-color="#808080" stop-opacity="0.1"/>
</linearGradient>
</defs>
</svg>
