<svg width="72" height="70" viewBox="0 0 72 70" fill="none" xmlns="http://www.w3.org/2000/svg">
<g filter="url(#filter0_d_1154_4)">
<ellipse cx="36" cy="31" rx="32" ry="31" fill="white"/>
<path d="M67 31C67 47.5389 53.151 61 36 61C18.849 61 5 47.5389 5 31C5 14.4611 18.849 1 36 1C53.151 1 67 14.4611 67 31Z" stroke="#5BA7B9" stroke-width="2"/>
</g>
<path d="M22.6307 16.5731L21.5731 17.6307L33.2958 31.2843L21.5731 44.9379L22.6307 45.9955L36.2843 34.2728L49.9378 45.9955L50.9954 44.9379L39.2728 31.2843L50.9954 17.6307L49.9378 16.5731L36.2843 28.2958L22.6307 16.5731Z" fill="#105C6E" stroke="#5BA7B9" stroke-width="1.5"/>
<defs>
<filter id="filter0_d_1154_4" x="0" y="0" width="72" height="70" filterUnits="userSpaceOnUse" color-interpolation-filters="sRGB">
<feFlood flood-opacity="0" result="BackgroundImageFix"/>
<feColorMatrix in="SourceAlpha" type="matrix" values="0 0 0 0 0 0 0 0 0 0 0 0 0 0 0 0 0 0 127 0" result="hardAlpha"/>
<feOffset dy="4"/>
<feGaussianBlur stdDeviation="2"/>
<feColorMatrix type="matrix" values="0 0 0 0 0 0 0 0 0 0 0 0 0 0 0 0 0 0 0.25 0"/>
<feBlend mode="normal" in2="BackgroundImageFix" result="effect1_dropShadow_1154_4"/>
<feBlend mode="normal" in="SourceGraphic" in2="effect1_dropShadow_1154_4" result="shape"/>
</filter>
</defs>
</svg>
